<?xml version="1.0" standalone="no"?>
<!DOCTYPE svg PUBLIC "-//W3C//DTD SVG 20010904//EN"
 "http://www.w3.org/TR/2001/REC-SVG-20010904/DTD/svg10.dtd">
<svg version="1.0" xmlns="http://www.w3.org/2000/svg"
 width="559.000000pt" height="559.000000pt" viewBox="0 0 559.000000 559.000000"
 preserveAspectRatio="xMidYMid meet">
<metadata>
Created by potrace 1.14, written by Peter Selinger 2001-2017
</metadata>
<g transform="translate(0.000000,559.000000) scale(0.100000,-0.100000)"
fill="#000000" stroke="none">
<path d="M4220 5397 c-20 -18 -69 -61 -109 -97 -41 -36 -79 -69 -85 -75 -6 -5
-52 -46 -101 -90 -50 -44 -92 -82 -95 -85 -7 -7 -179 -160 -284 -253 l-39 -34
-384 0 -384 0 -405 323 c-223 178 -407 324 -410 324 -2 0 -4 -31 -4 -70 0 -38
4 -70 8 -70 5 0 7 25 6 55 -1 30 1 55 5 55 5 0 65 -46 181 -140 19 -16 165
-132 324 -259 l288 -231 184 0 c101 0 184 -3 185 -7 3 -46 18 -937 20 -1185 0
-82 4 -148 8 -148 4 0 6 55 5 123 -1 67 -5 347 -9 622 -5 275 -8 520 -9 545
l0 45 201 5 201 5 68 60 c99 87 258 229 264 235 8 8 319 284 367 326 15 13 28
22 29 21 2 -2 16 -932 16 -1072 0 -45 18 -85 174 -392 96 -187 174 -345 174
-350 0 -5 -57 -47 -127 -93 -71 -46 -193 -127 -273 -179 -81 -53 -301 -221
-498 -379 -226 -182 -357 -280 -365 -275 -12 7 -175 130 -191 144 -10 9 -14
143 -15 432 -1 92 -4 167 -9 167 -4 0 -7 -46 -6 -102 1 -57 3 -190 4 -297 l2
-195 -44 -39 c-24 -21 -63 -56 -87 -78 -23 -21 -47 -39 -52 -39 -6 0 -71 43
-147 96 -75 52 -306 211 -512 354 -589 406 -601 414 -623 432 l-22 16 159 319
c149 297 160 322 159 373 0 65 -14 617 -19 740 -1 47 -3 129 -3 183 -1 53 -5
97 -9 97 -5 0 -7 -30 -6 -67 3 -72 10 -349 20 -753 l6 -246 -162 -324 -162
-325 24 -18 c23 -18 83 -60 386 -269 l153 -106 -50 -38 c-52 -41 -65 -52 -396
-304 -115 -88 -238 -182 -271 -208 -34 -26 -122 -93 -196 -150 l-135 -102 -28
-103 c-15 -56 -38 -140 -51 -187 -12 -47 -48 -175 -78 -284 -31 -110 -61 -215
-66 -235 -5 -20 -22 -84 -38 -142 l-30 -106 47 -64 c26 -35 119 -166 207 -292
87 -125 192 -273 232 -330 40 -56 84 -120 99 -142 14 -22 27 -41 28 -43 2 -2
104 -23 226 -48 383 -75 629 -125 774 -155 77 -15 154 -31 170 -34 17 -2 126
-24 244 -48 l213 -44 202 125 c110 69 242 150 291 182 50 31 143 89 207 129
l117 72 -257 192 c-205 154 -356 267 -500 373 -4 2 55 136 141 324 16 36 58
128 92 205 35 77 131 291 215 475 84 184 178 394 210 465 32 72 71 159 88 195
40 86 135 296 153 337 10 24 41 50 109 95 340 222 470 311 470 322 0 6 -4 16
-9 22 -5 5 -84 157 -176 338 l-168 329 -3 206 c-11 740 -14 945 -16 947 -2 1
-19 -12 -38 -29z m-247 -2369 c-36 -79 -76 -168 -90 -198 -14 -30 -51 -113
-83 -185 -32 -71 -95 -211 -140 -310 -97 -213 -209 -460 -240 -530 -12 -27
-46 -102 -74 -165 -29 -63 -83 -184 -121 -267 -38 -84 -72 -153 -76 -153 -4 0
-5 15 -3 33 3 28 12 772 13 1119 l1 116 98 70 c53 39 248 192 432 340 184 149
338 271 342 271 3 1 -23 -63 -59 -141z m-1540 -388 c90 -190 178 -374 195
-410 16 -36 76 -162 132 -280 56 -118 122 -255 145 -305 24 -49 69 -144 100
-210 84 -177 115 -245 109 -245 -2 0 -21 11 -42 24 -20 13 -156 94 -302 181
-375 222 -354 210 -585 347 -279 166 -718 426 -882 523 -73 43 -133 81 -133
84 1 3 78 65 172 136 94 72 250 191 347 265 97 74 219 168 271 207 52 40 127
97 165 127 l70 54 37 -77 c20 -42 111 -231 201 -421z m142 247 c55 -38 127
-87 160 -110 33 -23 140 -97 237 -165 l177 -123 -5 -407 c-6 -479 -12 -829
-13 -857 -1 -18 -38 53 -121 230 -15 33 -56 119 -90 190 -55 115 -114 238
-277 585 -25 52 -93 194 -150 315 -142 297 -273 576 -273 582 0 2 57 -35 128
-83 70 -49 172 -119 227 -157z m668 -168 c51 -39 92 -75 92 -80 0 -5 -40 -38
-89 -73 l-88 -65 -89 60 c-49 33 -91 65 -94 70 -8 11 147 158 168 159 4 0 49
-32 100 -71z m-1983 -508 c30 -35 60 -69 65 -75 6 -6 37 -42 70 -81 33 -38 62
-72 65 -75 3 -3 59 -68 125 -145 65 -77 137 -160 159 -185 60 -67 91 -103 191
-220 49 -58 92 -107 95 -110 3 -3 86 -99 185 -215 99 -116 185 -215 190 -221
10 -11 109 -126 375 -434 78 -91 154 -178 169 -195 112 -129 125 -146 100
-141 -13 3 -46 10 -74 16 -57 12 -49 10 -215 44 -69 14 -136 27 -150 29 -14 3
-81 16 -150 31 -69 14 -136 27 -150 30 -14 2 -149 29 -300 60 -151 30 -286 57
-300 60 -14 3 -72 14 -129 25 -57 11 -105 22 -106 23 -41 61 -455 650 -517
737 -48 68 -88 129 -88 135 0 6 11 49 24 96 28 99 68 240 101 360 12 47 39
144 60 215 20 72 38 138 40 148 2 9 16 61 31 114 l28 96 25 -29 c14 -16 51
-58 81 -93z m60 29 c25 -15 180 -107 345 -205 390 -231 785 -466 1060 -629
121 -72 262 -156 313 -186 l93 -55 -6 -170 c-3 -93 -8 -185 -10 -202 -3 -18 0
-33 5 -33 6 0 10 21 10 48 1 117 13 328 19 334 3 4 31 -12 61 -35 31 -23 194
-145 363 -271 247 -184 305 -232 295 -241 -12 -12 -158 -103 -533 -335 -82
-50 -167 -103 -187 -116 -21 -13 -40 -24 -44 -24 -5 0 -1 122 10 363 2 26 -1
47 -6 47 -4 0 -9 -37 -9 -82 -1 -46 -3 -96 -4 -113 -1 -16 -4 -72 -6 -123 l-3
-93 -31 33 c-16 18 -55 62 -85 98 -30 36 -59 70 -65 76 -5 6 -32 37 -60 69
-27 32 -54 63 -60 69 -5 6 -50 58 -100 116 -49 58 -123 143 -164 190 -87 100
-75 86 -271 315 -85 99 -157 182 -160 185 -3 3 -59 68 -125 145 -110 129 -153
179 -180 209 -56 64 -94 107 -115 132 -73 86 -269 315 -305 354 -79 89 -150
173 -159 188 -9 16 0 11 114 -58z"/>
<path d="M3109 678 c0 -40 -2 -88 -3 -105 -1 -18 1 -33 6 -33 4 0 8 35 9 78 1
42 2 89 3 105 2 15 -1 27 -6 27 -4 0 -8 -33 -9 -72z"/>
</g>
</svg>
