<?xml version="1.0" standalone="no"?>
<!DOCTYPE svg PUBLIC "-//W3C//DTD SVG 20010904//EN"
 "http://www.w3.org/TR/2001/REC-SVG-20010904/DTD/svg10.dtd">
<svg version="1.0" xmlns="http://www.w3.org/2000/svg"
 width="1436.000000pt" height="1436.000000pt" viewBox="0 0 1436.000000 1436.000000"
 preserveAspectRatio="xMidYMid meet">
<metadata>
Created by potrace 1.14, written by Peter Selinger 2001-2017
</metadata>
<g transform="translate(0.000000,1436.000000) scale(0.100000,-0.100000)"
fill="#000000" stroke="none">
<path d="M4435 14330 c-10 -11 -31 -20 -47 -20 l-28 0 0 -748 0 -747 -245
-735 c-135 -404 -245 -738 -245 -743 0 -4 11 -13 25 -19 25 -11 25 -11 6 -32
l-20 -22 575 -529 c317 -292 591 -544 611 -560 l35 -31 -490 -1519 c-269 -836
-494 -1540 -501 -1565 -6 -25 -63 -358 -126 -740 -63 -382 -118 -707 -121
-721 -4 -21 0 -28 18 -34 l23 -8 -23 -4 c-16 -3 -21 -10 -18 -21 19 -66 736
-3438 732 -3447 -2 -6 -274 -227 -604 -491 -331 -263 -601 -483 -601 -488 -1
-5 6 -18 15 -27 15 -17 15 -20 0 -43 -12 -19 -13 -27 -3 -33 6 -4 399 -229
872 -500 855 -490 860 -492 878 -472 l17 21 0 -26 0 -26 1625 0 c1293 0 1625
3 1625 13 0 9 2 9 8 0 5 -8 268 22 997 113 545 68 993 124 997 124 4 0 5 14 1
30 -5 30 -5 30 22 20 15 -6 29 -9 30 -8 5 5 487 1211 493 1231 3 13 -2 20 -18
24 l-23 6 23 17 23 17 -373 1119 c-205 615 -374 1120 -375 1122 -1 1 -14 -2
-28 -7 -23 -9 -26 -7 -32 19 -5 24 -11 29 -28 25 -87 -21 -1071 -214 -1074
-211 -3 2 201 312 451 687 l456 684 -22 17 -23 17 27 10 26 10 -240 958 c-131
527 -243 975 -249 996 -6 23 -16 37 -26 37 -11 0 -13 3 -5 13 8 9 -205 394
-845 1527 -471 833 -856 1522 -857 1531 -1 8 265 260 601 569 l602 554 -20 22
c-19 21 -19 21 6 32 14 6 25 15 25 19 0 5 -110 339 -245 743 l-245 735 0 747
0 748 -27 0 c-15 0 -37 10 -50 21 -16 16 -26 19 -35 12 -7 -6 -284 -227 -615
-492 l-603 -481 -730 0 -730 0 -613 490 c-336 270 -615 490 -618 490 -3 0 -14
-9 -24 -20z m594 -583 l524 -420 -534 -213 c-294 -118 -535 -214 -536 -214 -2
0 -3 288 -3 641 0 509 3 639 13 633 6 -5 248 -197 536 -427z m3328 -843 c-2
-2 -243 92 -537 210 l-533 213 534 428 534 427 3 -638 c1 -350 1 -639 -1 -640z
m-1259 334 c-3 -7 -155 -867 -339 -1910 -184 -1044 -336 -1898 -339 -1898 -3
0 -155 854 -339 1898 -184 1043 -336 1903 -339 1910 -3 9 137 12 678 12 541 0
681 -3 678 -12z m-1114 -2047 c190 -1081 345 -1965 343 -1966 -1 -2 -247 214
-547 477 -578 509 -1765 1594 -1765 1614 0 16 1609 1854 1616 1846 4 -4 162
-891 353 -1971z m2045 1046 c442 -504 801 -921 799 -925 -9 -23 -1291 -1189
-1768 -1610 -300 -263 -546 -479 -547 -477 -3 2 686 3915 693 3934 3 8 8 11
13 5 4 -5 369 -422 810 -927z m-3261 134 c-376 -430 -684 -778 -686 -773 -1 4
85 268 191 587 l194 580 489 196 c269 108 490 195 492 193 2 -1 -304 -354
-680 -783z m3799 -186 c106 -319 192 -583 190 -588 -2 -6 -1358 1536 -1365
1554 -2 4 218 -81 489 -189 l492 -197 194 -580z m-2813 -3890 c315 -907 573
-1651 572 -1652 -2 -2 -2070 459 -2074 462 -4 3 906 2832 916 2850 4 6 7 6 9
0 2 -6 262 -752 577 -1660z m105 1180 l500 -440 0 -1055 c0 -1029 -1 -1054
-19 -1005 -9 28 -246 707 -525 1510 -278 803 -509 1464 -513 1470 -11 18 56
-40 557 -480z m1677 477 c-2 -4 -233 -664 -511 -1467 -279 -803 -516 -1482
-525 -1510 -18 -49 -19 -24 -19 1005 l0 1055 526 463 c290 254 528 462 531
462 2 0 1 -3 -2 -8z m345 -1470 c121 -756 219 -1375 217 -1377 -6 -6 -1573
-453 -1577 -449 -2 1 250 734 560 1628 451 1298 565 1619 571 1598 4 -15 107
-645 229 -1400z m676 -15 c409 -725 747 -1325 750 -1333 4 -12 -73 -14 -541
-14 -300 0 -546 2 -546 4 0 2 -97 603 -215 1336 -118 733 -215 1340 -215 1349
1 13 3 12 12 -4 6 -11 346 -613 755 -1338z m1023 -2297 c114 -454 210 -838
214 -854 4 -18 -254 270 -738 823 -411 469 -746 854 -746 857 0 2 239 3 532 2
l532 -3 206 -825z m-4290 580 c569 -126 1040 -232 1046 -234 7 -3 -153 -701
-452 -1971 -254 -1082 -465 -1969 -467 -1971 -2 -2 -253 942 -557 2099 -304
1156 -565 2148 -580 2205 -15 56 -27 102 -26 102 1 0 467 -103 1036 -230z
m2756 158 c-25 -66 -1543 -3968 -1557 -4003 -4 -11 -8 797 -8 1795 l-1 1815
793 227 c435 125 793 227 794 227 2 1 -8 -27 -21 -61z m459 -1697 c190 -888
344 -1615 343 -1616 -11 -8 -2312 -924 -2315 -921 -2 2 1547 3995 1609 4146 6
14 12 21 14 15 2 -5 159 -736 349 -1624z m564 732 c424 -486 771 -885 771
-888 0 -3 -200 -305 -445 -672 -256 -385 -446 -661 -449 -652 -3 8 -152 700
-331 1539 -180 839 -329 1536 -332 1550 -4 16 -2 22 4 15 6 -5 357 -407 782
-892z m-4306 -1373 c317 -1202 577 -2194 579 -2204 3 -17 -36 -32 -310 -124
-172 -57 -315 -102 -316 -101 -2 2 -168 774 -369 1714 l-366 1710 100 590 c54
325 99 594 99 599 0 5 2 7 4 5 3 -2 263 -987 579 -2189z m1590 -1961 c-16 -13
-854 -216 -850 -205 2 6 195 822 428 1814 l424 1804 3 -1703 c1 -937 -1 -1706
-5 -1710z m4128 82 c192 -575 348 -1046 346 -1047 -1 -1 -946 208 -2099 464
-1154 257 -2094 469 -2090 473 4 3 522 212 1152 464 l1145 457 585 118 c322
65 591 118 599 117 10 -1 128 -343 362 -1046z m-4756 -1391 c-375 -749 -580
-1150 -589 -1148 -19 4 -1606 912 -1605 918 0 3 262 214 582 470 l582 465 335
113 c275 93 419 135 800 231 256 65 466 114 468 110 2 -4 -256 -525 -573
-1159z m2985 690 c1141 -253 2087 -464 2102 -468 l26 -7 -228 -570 c-125 -313
-234 -573 -241 -577 -8 -4 -443 -61 -966 -126 l-953 -118 -24 25 c-17 19
-1757 2193 -1840 2300 -14 18 -295 79 2124 -459z m-1926 -1868 c-829 -1 -1509
0 -1511 2 -2 2 257 527 577 1166 l581 1162 930 -1164 931 -1163 -1508 -3z"/>
</g>
</svg>
